<svg enable-background="new 0 0 72 72" height="72" viewBox="0 0 72 72" width="72" xmlns="http://www.w3.org/2000/svg" xmlns:xlink="http://www.w3.org/1999/xlink"><clipPath id="a"><path d="m53.079 52.938c-.525 2.023.689 4.089 2.713 4.614s4.088-.688 4.613-2.712c.617-2.376-1.963-24.642-2.344-30.249"/></clipPath><clipPath id="b"><path d="m18.921 52.938c.525 2.023-.689 4.089-2.713 4.614-2.021.525-4.088-.688-4.613-2.712-.617-2.376 1.963-24.642 2.346-30.249"/></clipPath><clipPath id="c"><path d="m15.177 3.133v19.667c3.262-2.195 11.635-7.143 20.824-7.143 9.188 0 17.562 4.947 20.824 7.143v-19.667z"/></clipPath><path d="m58.104 25.171c.016-1.113-.439-1.806-1.279-2.371-3.262-2.195-11.637-7.143-20.824-7.143-9.189 0-17.562 4.947-20.824 7.143-.842.565-1.297 1.258-1.279 2.371-.5 6.414-2.9 27.368-2.303 29.669.525 2.023 2.592 3.237 4.613 2.712.242-.062.473-.148.689-.253.33 3.589.596 6.474.754 8.147 0 .595.48 1.076 1.076 1.076h7.73c2.041 0 2.672-2.157 9.543-2.157 6.869 0 7.502 2.157 9.543 2.157h7.73c.594 0 1.02-.484 1.076-1.076.156-1.674.422-4.559.752-8.147.219.104.447.19.689.253 2.021.525 4.088-.688 4.613-2.712.6-2.301-1.8-23.255-2.299-29.669z" stroke="#000" stroke-width="3"/><path d="m53.079 52.938c-.525 2.023.689 4.089 2.713 4.614 2.021.525 4.088-.688 4.613-2.712.617-2.376-1.963-24.642-2.344-30.249" fill="#10704a"/><path clip-path="url(#a)" d="m60.792 45.34-6.021.59" fill="none" stroke="#fff200" stroke-width="6.4"/><g clip-path="url(#a)" fill="none"><path d="m60.792 45.34-6.021.59" stroke="#10553e" stroke-width="1.6"/><path d="m60.792 45.34-6.021.59" stroke="#fff" stroke-width=".8"/></g><path d="m53.079 52.938c-.525 2.023.689 4.089 2.713 4.614 2.021.525 4.088-.688 4.613-2.712.617-2.376-1.963-24.642-2.344-30.249" fill="none" stroke="#000" stroke-width=".9"/><path d="m18.921 52.938c.525 2.023-.689 4.089-2.713 4.614-2.021.525-4.088-.688-4.613-2.712-.617-2.376 1.963-24.642 2.346-30.249" fill="#10704a"/><path clip-path="url(#b)" d="m11.208 45.34 6.023.59" fill="none" stroke="#fff200" stroke-width="6.4"/><g clip-path="url(#b)" fill="none"><path d="m11.208 45.34 6.023.59" stroke="#10553e" stroke-width="1.6"/><path d="m11.208 45.34 6.023.59" stroke="#fff" stroke-width=".8"/></g><path d="m18.921 52.938c.525 2.023-.689 4.089-2.713 4.614-2.021.525-4.088-.688-4.613-2.712-.617-2.376 1.963-24.642 2.346-30.249" fill="none" stroke="#000" stroke-width=".9"/><path d="m54.351 65.446c.543-5.789 2.375-26.026 3.736-39.914.131-1.334-.332-2.107-1.262-2.732-3.262-2.195-11.637-7.143-20.824-7.143-9.189 0-17.562 4.947-20.824 7.143-.93.625-1.395 1.398-1.264 2.732 1.361 13.888 3.193 34.125 3.738 39.914 0 .595.48 1.076 1.076 1.076h7.73c2.041 0 2.672-2.157 9.543-2.157 6.869 0 7.502 2.157 9.543 2.157h7.73c.595 0 1.021-.484 1.078-1.076z" fill="#10704a"/><path d="m17.505 65.446 9.824.811-8.75.266c0-.001-.392-.395-1.074-1.077z" fill="#fff200"/><path d="m54.497 65.446-9.826.811 8.75.266c0-.001.394-.395 1.076-1.077z" fill="#fff200"/><g stroke-miterlimit="10"><path d="m14.321 28.328 5.28 37.865" fill="none" stroke="#024732" stroke-width=".2"/><path d="m57.681 28.328-5.282 37.865" fill="none" stroke="#024732" stroke-width=".2"/><path d="m57.733 28.651c-7.879-7.879-9.705-11.043-21.732-11.043-12.029 0-13.855 3.164-21.734 11.043" fill="none" stroke="#024732" stroke-width=".2"/><path d="m35.972 17.567c6.951 0 10.078 3.324 10.078 7.28 0 3.955-10.078 11.042-10.078 11.042s-10.078-7.087-10.078-11.042 3.127-7.28 10.078-7.28z" fill="#fff200" stroke="#fff200" stroke-width="1.6"/><path d="m35.972 18.359c6.35 0 9.207 3.037 9.207 6.651 0 3.612-9.207 10.086-9.207 10.086s-9.207-6.474-9.207-10.086c0-3.614 2.857-6.651 9.207-6.651z" fill="none" stroke="#024732" stroke-width="1.6"/><path d="m35.972 18.359c6.35 0 9.207 3.037 9.207 6.651 0 3.612-9.207 10.086-9.207 10.086s-9.207-6.474-9.207-10.086c0-3.614 2.857-6.651 9.207-6.651z" fill="none" stroke="#fff" stroke-width=".4"/></g><ellipse cx="36.001" cy="68.13" rx="20.908" ry=".737"/><path d="m54.351 65.446c.543-5.789 2.375-26.026 3.736-39.914.131-1.334-.332-2.107-1.262-2.732-3.262-2.195-11.637-7.143-20.824-7.143-9.189 0-17.562 4.947-20.824 7.143-.93.625-1.395 1.398-1.264 2.732 1.361 13.888 3.193 34.125 3.738 39.914 0 .595.48 1.076 1.076 1.076h7.73c2.041 0 2.672-2.157 9.543-2.157 6.869 0 7.502 2.157 9.543 2.157h7.73c.595 0 1.021-.484 1.078-1.076z" fill="none" stroke="#000" stroke-width=".9"/><path d="m47.925 63.556s-4.312.554-11.924.554c-7.613 0-11.924-.554-11.924-.554" fill="none" stroke="#000" stroke-linecap="round" stroke-linejoin="round" stroke-width=".9"/><path d="m27.452 54.263h2.178v-11.732h-2.178v-2.673h5.371v14.404h2.129v2.673h-7.5z" fill="#fff"/><path d="m36.261 49.288 1.732-1.758h2.945l.545-.544v-3.96l-.521-.545h-.988l-.521.545v1.955h-3.191v-3.044l2.078-2.079h4.258l2.078 2.079v6.683l-1.758 1.757h-2.943l-.545.544v3.218h5.223v2.797h-8.391v-7.648z" fill="#fff"/><path d="m36.001 15.124c8.377 0 12.145 4.007 12.145 8.773s-12.145 10.211-12.145 10.211-12.145-5.444-12.145-10.211 3.766-8.773 12.145-8.773z" fill="#e8e8e8"/><path d="m31.31 22.036c-.291 1.575-1.1 2.847-1.805 2.843-.707-.007-1.045-1.286-.754-2.861.289-1.575 1.098-2.848 1.803-2.841.707.003 1.045 1.284.756 2.859z"/><path d="m30.519 23.202c-.104.389-.271.703-.377.703-.104 0-.104-.314 0-.703.104-.39.271-.705.375-.705.105 0 .105.315.002.705z" fill="#989a9c"/><path d="m40.692 22.036c.289 1.575 1.098 2.847 1.805 2.843.707-.007 1.045-1.286.754-2.861-.289-1.575-1.098-2.848-1.805-2.841-.705.003-1.045 1.284-.754 2.859z"/><path d="m42.661 23.109c.014.39.107.704.211.704.105 0 .18-.314.166-.704-.012-.389-.107-.704-.211-.704s-.178.316-.166.704z" fill="#989a9c"/><path d="m42.114 25.303h-12.228c-1.084 0-1.41 1.194-1.41 1.737v2.796c3.424 2.454 7.479 4.272 7.479 4.272s4.129-1.852 7.572-4.34c0-1.166 0-2.447 0-2.729-.001-.542-.327-1.736-1.413-1.736z" fill="#fff"/><path d="m44.062 27.352c-4.453 2.801-11.67 2.801-16.123 0" fill="#fff" stroke="#000" stroke-linecap="round" stroke-linejoin="round" stroke-width=".4"/><path d="m29.187 26.281c-.008 0-.01 0-.02-.042-.062-.242-.152-.866-.004-1.605.004-.014.016-.062.023-.069.035 0 2.676.007 2.676.007s.43.176.732.438c.512.365.307.745-.01.949.033.037-.76.323-.76.323s-2.602-.001-2.637-.001z"/><path d="m42.815 26.281c.008 0 .01 0 .02-.042.062-.242.152-.866.002-1.605-.002-.014-.016-.062-.021-.069-.037 0-2.676.007-2.676.007s-.432.176-.732.438c-.512.365-.307.745.01.949-.033.037.76.323.76.323s2.6-.001 2.637-.001z"/><path d="m36.001 15.124c8.377 0 12.145 4.007 12.145 8.773s-12.145 10.211-12.145 10.211-12.145-5.444-12.145-10.211 3.766-8.773 12.145-8.773z" fill="none" stroke="#000" stroke-width=".8"/><path clip-path="url(#c)" d="m26.63 28.762s0-7.168 0-7.844.406-2.162 1.758-2.162h15.227c1.352 0 1.758 1.486 1.758 2.162s0 7.844 0 7.844l.865.54c1.15-1.148 2.48-1.794 2.48-3.783 0-.946 0-2.718 0-4.684 0-3.924-2.506-11.61-12.717-11.61s-12.717 7.687-12.717 11.61v4.684c0 1.989 1.33 2.635 2.479 3.783z" stroke="#000" stroke-width="3"/><path d="m38.237 33.182c-1.582 1.583-2.891 1.583-4.473 0 0 0 1.021-.726 2.373-.726s2.1.726 2.1.726z" stroke="#000" stroke-width=".8"/><path d="m27.413 28.762s0-7.168 0-7.844.404-2.162 1.756-2.162h13.664c1.35 0 1.756 1.486 1.756 2.162s0 7.844 0 7.844l.098.54c1.148-1.148 4.031-2.707 4.031-4.696 0-.945 0-1.805 0-3.771 0-3.924-2.506-11.61-12.717-11.61s-12.717 7.687-12.717 11.61v3.771c0 1.989 2.863 3.548 4.012 4.696z" fill="#fff200"/><g fill="none"><path d="m27.413 28.762s0-7.168 0-7.844.404-2.162 1.756-2.162h13.664c1.35 0 1.756 1.486 1.756 2.162s0 7.844 0 7.844l.098.54c1.148-1.148 4.031-2.707 4.031-4.696 0-.945 0-1.805 0-3.771 0-3.924-2.506-11.61-12.717-11.61s-12.717 7.687-12.717 11.61v3.771c0 1.989 2.863 3.548 4.012 4.696z" stroke="#000" stroke-width=".8"/><g stroke-miterlimit="10"><path d="m31.198 26.123v4.933" stroke="#b1c8d4" stroke-width=".8"/><path d="m36.001 26.123v4.933" stroke="#b1c8d4" stroke-width=".8"/><path d="m40.804 26.123v4.933" stroke="#b1c8d4" stroke-width=".8"/><path d="m23.665 21.457v1.425" stroke="#000" stroke-linecap="round" stroke-linejoin="round" stroke-width="1.2"/><path d="m48.337 21.457v1.425" stroke="#000" stroke-linecap="round" stroke-linejoin="round" stroke-width="1.2"/><path d="m44.618 26.079v3.05c0 1.08-.875 1.956-1.955 1.956h-13.324c-1.08 0-1.957-.876-1.957-1.956v-3.05" stroke="#b1c8d4" stroke-linecap="round" stroke-linejoin="round" stroke-width=".8"/><path d="m49.138 21.93v2.11c0 1.081-.875 1.956-1.955 1.956h-22.364c-1.08 0-1.957-.875-1.957-1.956v-2.11" stroke="#b1c8d4" stroke-linecap="round" stroke-linejoin="round" stroke-width=".8"/></g></g></svg>