<svg enable-background="new 0 0 72 72" viewBox="0 0 72 72" xmlns="http://www.w3.org/2000/svg"><ellipse cx="36.5" cy="65.2" fill="#bbbdbf" rx="30.8" ry="5.4"/><path d="m57.5 46.2v-14.2c2.4 0 4.4-2 4.4-4.4s-2-4.4-4.4-4.4v-2.6c0-4.6-3.8-8.3-8.3-8.3h-26.9c-4.6 0-8.3 3.8-8.3 8.3v2.6c-2.3.1-4.1 2-4.1 4.4s1.8 4.2 4.1 4.4v14.3c-2.3.1-4.1 2-4.1 4.4 0 2.3 1.8 4.2 4.1 4.4v2.2c0 4.6 3.8 8.3 8.3 8.3h26.8c4.6 0 8.3-3.8 8.3-8.3v-2.3c2.4 0 4.4-2 4.4-4.4.1-2.5-1.9-4.4-4.3-4.4z" fill="#939598"/><path d="m38.3 9.5h-5.3v-6.5c0-.6.5-1 1-1h3.3c.6 0 1 .5 1 1z" fill="#6d6e71"/><path d="m39.4 10.5h-7.4v-7.5c0-1.1.9-2 2-2h3.3c1.1 0 2 .9 2 2v7.5zm-5.4-2h3.3v-5.5h-3.3z"/><path d="m41 13.1h-10.6v-4.8c0-1.1.9-2 2-2h6.5c1.1 0 2 .9 2 2z" fill="#6d6e71"/><path d="m42 14.1h-12.6v-5.8c0-1.7 1.4-3 3-3h6.5c1.7 0 3 1.4 3 3zm-10.6-2h8.6v-3.8c0-.6-.5-1-1-1h-6.5c-.6 0-1 .5-1 1v3.8z"/><path d="m43.4 56.2c0 4.8-3.9 8.6-8.6 8.6h-4.2c-4.8 0-8.6-3.9-8.6-8.6v-35c0-4.8 3.9-8.6 8.6-8.6h4.2c4.8 0 8.6 3.9 8.6 8.6z" fill="#bcbec0"/><path d="m49.1 68h-26.8c-6 0-10.9-4.9-10.9-10.9v-.2c-2.5-1.1-4.1-3.5-4.1-6.3s1.7-5.3 4.1-6.3v-10.5c-2.5-1.1-4.1-3.5-4.1-6.3s1.7-5.3 4.1-6.3v-.7c0-6 4.9-10.9 10.9-10.9h26.8c6 0 10.9 4.9 10.9 10.9v.5c2.6 1 4.5 3.5 4.5 6.5s-1.9 5.5-4.5 6.5v9.8c2.6 1 4.5 3.5 4.5 6.5s-1.9 5.4-4.5 6.4v.1c0 6-4.9 11.2-10.9 11.2zm-26.8-53.3c-3.2 0-5.8 2.6-5.8 5.8v2.6c0 1.3-1 2.5-2.4 2.5-1 .1-1.8.9-1.8 1.8s.8 1.8 1.8 1.8c1.3.1 2.4 1.2 2.4 2.5v14.3c0 1.3-1 2.5-2.4 2.5-1 .1-1.8.9-1.8 1.8s.8 1.8 1.8 1.8c1.3.1 2.4 1.2 2.4 2.5v2.2c0 3.2 2.6 5.8 5.8 5.8h26.8c3.2 0 5.8-2.9 5.8-6.1v-1.8c0-1.4 1.1-2.5 2.5-2.5h.1c1 0 1.8-.9 1.8-1.9s-.8-1.8-1.8-1.9c-.7 0-1.4-.2-1.9-.7s-.8-1.1-.8-1.8v-14c0-.7.3-1.3.8-1.8s1.2-.7 1.8-.7h.1c1 0 1.8-.9 1.8-1.9s-.8-1.8-1.8-1.9h-.1c-.7 0-1.3-.3-1.8-.7-.5-.5-.8-1.1-.8-1.8v-2.6c0-3.2-2.6-5.8-5.8-5.8z"/><path d="m13.1 24.6h13.2" fill="none"/><path d="m26.3 25.7h-13.2c-.6 0-1-.5-1-1s.5-1 1-1h13.2c.6 0 1 .5 1 1s-.4 1-1 1z"/><path d="m13.1 30.4h22.2" fill="none"/><path d="m35.3 31.2h-22.2c-.6 0-1-.5-1-1s.5-1 1-1h22.3c.6 0 1 .5 1 1s-.5 1-1.1 1z"/><path d="m51.8 24.6h7.2" fill="none"/><path d="m59 25.7h-7.2c-.6 0-1-.5-1-1s.5-1 1-1h7.2c.6 0 1 .5 1 1s-.5 1-1 1z"/><path d="m13.1 47.7h7.2" fill="none"/><path d="m20.3 48.5h-7.2c-.6 0-1-.5-1-1s.5-1 1-1h7.2c.6 0 1 .5 1 1s-.4 1-1 1z"/><path d="m13.1 53.5h46.1" fill="none"/><path d="m59.2 54.1h-46.1c-.6 0-1-.5-1-1s.5-1 1-1h46.1c.6 0 1 .5 1 1s-.5 1-1 1z"/><path d="m37.3 47.7h21.7" fill="none"/><path d="m59 48.5h-21.7c-.6 0-1-.5-1-1s.5-1 1-1h21.7c.6 0 1 .5 1 1s-.5 1-1 1z"/><path d="m24 36.3c0-.5.3-.8.8-.8h2c1.1 0 1.9.7 1.9 1.8 0 .7-.3 1.2-1 1.5.9.1 1.6.9 1.6 1.8 0 1.5-1 2.2-2.4 2.2h-2.1c-.5 0-.8-.3-.8-.8zm1.5 2.1h.8c.5 0 .8-.3.8-.8s-.4-.7-.8-.7h-.8zm0 3.1h1.2c.6 0 1-.3 1-.9 0-.5-.4-.8-1.1-.8h-1.1z"/><path d="m31.2 36.4c0-.5.3-.9.8-.9h2.6c.5 0 .7.4.7.7 0 .4-.2.7-.7.7h-1.8v1.5h1.7c.5 0 .8.4.8.7 0 .4-.3.7-.8.7h-1.7v1.6h1.9c.5 0 .7.4.7.7 0 .4-.2.7-.7.7h-2.7c-.5 0-.8-.3-.8-.8z"/><path d="m37.3 36.4c0-.5.3-.9.8-.9h2.6c.5 0 .7.4.7.7 0 .4-.2.7-.7.7h-1.8v1.5h1.7c.5 0 .8.4.8.7 0 .4-.3.7-.8.7h-1.7v1.6h1.9c.5 0 .7.4.7.7 0 .4-.2.7-.7.7h-2.7c-.5 0-.8-.3-.8-.8z"/><path d="m43.4 36.3c0-.5.3-.8.8-.8h1.8c1.6 0 2.6.7 2.6 2.3 0 1.1-.9 1.8-1.9 2l1.8 1.9c.1.2.2.3.2.5 0 .4-.3.8-.8.8-.2 0-.4-.1-.6-.3l-2.3-2.8v2.2c0 .5-.3.8-.8.8s-.8-.3-.8-.8zm1.6 2.5h1c.6 0 1-.3 1-.9s-.4-.9-1-.9h-1z"/><g fill="#fff"><path d="m46.9 21.8-2-.5c-.5-.1-.9-.5-1-1l-.5-2c-.1-.4-.8-.4-.9 0l-.5 2c-.1.5-.5.8-1 1l-2 .5c-.2 0-.3.2-.3.4s.1.4.3.4l2 .5c.5.1.9.5 1 1l.5 2c0 .2.2.3.4.3s.4-.1.4-.3l.5-2c.1-.5.5-.8 1-1l2-.5c.2 0 .3-.2.3-.4 0-.3 0-.3-.2-.4z"/><path d="m27.8 47.4-1-.2c-.2-.1-.4-.2-.5-.5l-.2-1c0-.2-.4-.2-.4 0l-.2 1c-.1.2-.2.4-.5.5l-1 .2c-.1 0-.2.1-.2.2s.1.2.2.2l1 .2c.2.1.4.2.5.5l.2 1c0 .1.1.2.2.2s.2-.1.2-.2l.2-1c.1-.2.2-.4.5-.5l1-.2c.1 0 .2-.1.2-.2s-.1-.2-.2-.2z"/></g></svg>