<svg enable-background="new 0 0 72 72" height="72" viewBox="0 0 72 72" width="72" xmlns="http://www.w3.org/2000/svg"><path d="m32.147 69.195s.553-1.345.553-4.509c0-3.163-3.48-7.276-3.322-10.123.158-2.848 4.192-1.584 5.062 1.106.87 2.689 2.057 7.831 1.82 9.809-.238 1.977-2.452 3.48-4.113 3.717z" fill="#dcddde"/><path d="m40.057 69.116s1.504-.157 3.244-5.536c1.739-5.379 2.451-5.695 1.897-7.752-.553-2.057-1.107-2.926-.949-5.22.159-2.295 3.639-4.43 3.639-3.56s.712 5.536 3.875 6.169c3.164.634 6.96-.949 7.989-2.372 1.029-1.424 2.769 4.429 2.215 6.248-.555 1.819-3.244-.948-5.774.791-2.53 1.74-3.559 4.826-4.745 4.271s-3.006-.949-3.085 1.028c-.08 1.978-2.928 7.12-8.306 5.933z" fill="#dcddde"/><path d="m19.72 44.608c1.499 0 2.648.291 2.792.982 0 0 1.887 8.191-1.738 9.037-.861.2-1.656.306-2.389.306-2.356 0-4.093-1.085-5.457-3.583-1.787-3.276-1.54-4.816 1.54-5.858 1.599-.543 3.63-.884 5.252-.884m0-1.898c-1.825 0-4.071.377-5.862.983-1.248.423-2.987 1.188-3.672 2.941-.732 1.876.133 3.895 1.076 5.625 1.678 3.076 4.008 4.572 7.123 4.572.87 0 1.793-.116 2.819-.355 5.206-1.213 3.543-9.635 3.158-11.312-.228-1.098-1.226-2.454-4.642-2.454z"/><path d="m15.808 55.77s-5.61 1.439-7.795.397c-2.186-1.043-3.278 5.71 6.206 2.631 0 0 0 3.773 3.079 5.312 3.078 1.54 4.469-.694 4.469-.694s1.638 2.6 2.73 4.289c1.092 1.688 3.029 1.688 5.263 1.539s-3.178.25-3.774-3.178c-.595-3.426-2.383-9.75-3.425-10.894-1.041-1.141-3.675 1.193-6.753.598z"/><path d="m34.576 48.951s-4.833-3.74-6.355-3.974c-1.522-.23-1.919.298-1.919.298h-2.946v2.582h2.351s.828 3.858 3.807 7.533h1.555s1.026 4.054 2.615 5.244c1.589 1.191 2.516.795 2.516.795v-11.156z"/><circle cx="18.902" cy="53.634" r=".546"/><circle cx="26.052" cy="56.516" r=".414"/><path d="m7.126 57.587c-.015-.059-1.403-5.799 3.425-9.187l.912 1.299c-3.918 2.749-2.845 7.307-2.797 7.498z"/><path d="m12.773 51.879-.487-.628c.15-.115 3.752-2.857 10.972-2.796l-.006.793c-6.912-.062-10.443 2.603-10.479 2.631z"/><path d="m30.739 70.2c-.166 0-.335-.002-.51-.008-3.895-.111-5.458-2.176-5.522-2.265l1.521-1.136c.045.059 1.146 1.42 4.056 1.502 1.929.06 3.142-.226 3.822-.889.58-.564.862-1.488.862-2.829v-14.266h1.898v14.268c0 1.879-.47 3.251-1.437 4.189-1.012.984-2.471 1.434-4.69 1.434z"/><path d="m52.28 44.608c1.622 0 3.652.341 5.253.884 3.078 1.042 3.326 2.582 1.539 5.858-1.362 2.499-3.102 3.583-5.456 3.583-.733 0-1.528-.105-2.389-.306-3.625-.846-1.739-9.037-1.739-9.037.144-.691 1.294-.982 2.792-.982m0-1.898c-3.417 0-4.414 1.358-4.649 2.497-.377 1.635-2.039 10.057 3.166 11.27 1.027.239 1.948.355 2.819.355 3.115 0 5.443-1.496 7.122-4.572.943-1.729 1.809-3.749 1.075-5.625-.686-1.754-2.424-2.518-3.674-2.941-1.787-.607-4.034-.984-5.859-.984z"/><path d="m56.192 55.77s5.611 1.439 7.796.397c2.185-1.043 3.276 5.71-6.207 2.631 0 0 0 3.773-3.078 5.312-3.079 1.54-4.47-.694-4.47-.694s-1.638 2.6-2.73 4.289c-1.092 1.688-3.029 1.688-5.263 1.539s3.177.25 3.774-3.178c.595-3.426 2.383-9.75 3.425-10.894 1.043-1.141 3.674 1.193 6.753.598z"/><path d="m37.424 48.951s4.833-3.74 6.355-3.974c1.523-.23 1.92.298 1.92.298h2.945v2.582h-2.351s-.826 3.858-3.806 7.533h-1.557s-1.025 4.054-2.614 5.244c-1.589 1.191-2.516.795-2.516.795v-11.156z"/><circle cx="53.098" cy="53.634" r=".546"/><circle cx="45.947" cy="56.516" r=".414"/><path d="m64.873 57.587c.016-.059 1.403-5.799-3.425-9.187l-.912 1.299c3.918 2.749 2.845 7.307 2.797 7.498z"/><path d="m59.227 51.879.487-.628c-.151-.115-3.753-2.857-10.973-2.796l.008.793c6.91-.062 10.442 2.603 10.478 2.631z"/><path d="m41.261 70.2c-2.217 0-3.678-.45-4.689-1.435-.967-.938-1.437-2.311-1.437-4.189v-14.267h1.897v14.268c0 1.341.282 2.267.862 2.828.681.662 1.893.945 3.822.89 2.946-.083 4.173-1.556 4.184-1.57l1.499 1.167c-.07.089-1.75 2.192-5.629 2.303-.173.003-.344.005-.509.005z"/><path d="m36 50.604c-9.629 0-17.461-7.833-17.461-17.461v-10.637c0-9.628 7.833-17.461 17.461-17.461s17.462 7.833 17.462 17.461v10.637c.001 9.628-7.833 17.461-17.462 17.461z" fill="#fff"/><path d="m35.153 50.371s4.904-3.164 6.723-9.967c1.818-6.802 1.107-23.175.949-26.497-.159-3.322-2.689-6.722-5.062-7.276s-.078-1.581 2.215-1.186 10.994 3.874 12.734 12.021c1.741 8.148 1.345 23.254-2.057 26.023s-9.412 8.78-15.502 6.882z" fill="#dcddde"/><path d="m36 5.993c9.12 0 16.513 7.393 16.513 16.512v10.637c0 9.119-7.394 16.511-16.513 16.511-9.12 0-16.512-7.393-16.512-16.511v-10.636c-.001-9.12 7.391-16.513 16.512-16.513m0-1.898c-10.152 0-18.411 8.258-18.411 18.41v10.637c0 10.151 8.26 18.41 18.411 18.41 10.152 0 18.412-8.259 18.412-18.41v-10.636c0-10.153-8.26-18.411-18.412-18.411z"/><path d="m32.558 26.976c0 2.757-2.236 4.994-4.995 4.994s-4.994-2.236-4.994-4.994 2.236-4.045 4.994-4.045 4.995 1.286 4.995 4.045"/><path d="m49.247 26.976c0 2.757-2.235 4.994-4.994 4.994-2.758 0-4.994-2.236-4.994-4.994s2.236-4.045 4.994-4.045 4.994 1.286 4.994 4.045"/><path d="m39.492 33.497c-2.339-.613-4.926-.613-7.26 0l-.241-.918c2.492-.655 5.245-.655 7.742 0z"/><circle cx="21.918" cy="22.287" r="1.108"/><circle cx="31.567" cy="20.468" r="1.108"/><circle cx="35.838" cy="35.734" r="1.108"/><circle cx="31.963" cy="40.479" r="1.107"/><circle cx="31.963" cy="44.751" r="1.107"/><circle cx="31.963" cy="48.705" r="1.107"/><circle cx="27.771" cy="42.101" r=".751"/><circle cx="43.827" cy="42.101" r=".751"/><circle cx="23.025" cy="36.287" r="1.107"/><circle cx="26.109" cy="19.203" r="1.107"/><circle cx="26.109" cy="14.931" r="1.108"/><circle cx="49.79" cy="22.287" r="1.108"/><circle cx="40.141" cy="20.468" r="1.108"/><circle cx="39.746" cy="40.479" r="1.107"/><circle cx="39.746" cy="44.751" r="1.107"/><circle cx="39.746" cy="48.705" r="1.107"/><circle cx="48.683" cy="36.287" r="1.107"/><circle cx="45.598" cy="19.203" r="1.107"/><circle cx="45.598" cy="14.931" r="1.108"/><path d="m32.981 1.8h6.04v5.38h-6.04z"/><path d="m15.263 24.264h3.983v5.379h-3.983z"/><path d="m52.755 24.264h3.982v5.379h-3.982z"/><path d="m35.395 21.576h.949v9.096h-.949z"/><circle cx="35.949" cy="4.649" fill="#fff" r="1.108"/><path d="m38.132 8.05-4.033 6.486 2.53.157-1.899 4.905 4.271-6.249-2.53-.237z" fill="#ef4130"/></svg>